<?xml version="1.0" standalone="no"?>
<!DOCTYPE svg PUBLIC "-//W3C//DTD SVG 20010904//EN"
 "http://www.w3.org/TR/2001/REC-SVG-20010904/DTD/svg10.dtd">
<svg version="1.0" xmlns="http://www.w3.org/2000/svg"
 width="700.000000pt" height="420.000000pt" viewBox="0 0 700.000000 420.000000"
 preserveAspectRatio="xMidYMid meet">

<g transform="translate(0.000000,420.000000) scale(0.100000,-0.100000)"
fill="#000000" stroke="none">
<path d="M0 3786 l0 -414 22 -5 c24 -7 155 5 333 29 61 8 214 28 340 44 127
17 242 35 256 41 34 13 72 55 88 95 10 26 9 59 -4 175 -23 212 -46 401 -51
427 -4 22 -7 22 -158 22 l-154 0 5 -59 6 -59 -54 -7 c-95 -12 -92 -9 -85 -79
4 -33 9 -76 12 -93 l6 -33 61 3 61 2 38 -75 c20 -41 37 -81 38 -89 0 -8 -19
-33 -43 -55 -59 -57 -129 -80 -242 -80 -79 -1 -98 3 -148 28 -102 49 -137 116
-158 294 l-13 114 -50 -4 -51 -3 -7 55 c-4 30 -10 74 -13 98 -4 27 -11 42 -21
42 -12 0 -14 -60 -14 -414z"/>
<path d="M170 4178 c0 -13 3 -40 7 -62 l6 -38 48 5 c55 7 51 17 69 -148 15
-134 32 -184 78 -226 48 -46 81 -59 145 -59 67 0 120 15 153 43 l26 23 -26 52
c-28 56 -31 57 -72 41 -41 -15 -72 -3 -89 34 -15 32 -47 255 -40 268 3 3 36 9
75 13 59 6 70 10 70 26 0 51 3 50 -231 50 l-219 0 0 -22z"/>
<path d="M2128 3957 c4 -278 -4 -344 -46 -397 -49 -60 -100 -82 -216 -90
l-101 -7 83 -2 c78 -1 82 -2 83 -23 0 -13 2 -31 4 -41 2 -10 -3 -42 -10 -70
-16 -62 -69 -117 -113 -117 -28 0 -92 18 -92 26 0 2 23 25 52 51 54 51 108
127 108 152 0 9 -12 -4 -26 -29 -14 -25 -35 -56 -47 -69 -28 -29 -92 -71 -111
-71 -15 0 -36 49 -36 84 0 34 38 86 73 101 31 14 28 14 -61 15 l-92 0 25 -47
c36 -69 30 -77 -10 -13 l-34 55 -233 0 c-206 0 -237 2 -260 18 -35 22 -36 22
-32 -5 4 -27 25 -323 30 -423 2 -38 6 -86 9 -105 l6 -35 -17 33 c-11 22 -24
32 -40 32 -13 0 -28 8 -34 18 -10 15 -11 15 -5 -3 4 -11 9 -32 11 -47 3 -23 0
-28 -17 -28 -11 0 -22 -7 -25 -15 -4 -8 -10 -12 -16 -9 -5 3 -4 13 4 22 7 10
-8 -1 -33 -24 -62 -56 -123 -78 -197 -71 -66 5 -104 22 -159 70 -21 17 -32 25
-26 16 10 -13 9 -20 -8 -37 -25 -27 -39 -28 -39 -3 0 33 -24 29 -61 -9 -20
-21 -55 -46 -78 -56 -22 -10 -37 -20 -32 -23 5 -3 -23 -6 -62 -6 -40 0 -74 2
-77 5 -3 3 -25 15 -48 27 -28 14 -39 17 -32 8 10 -12 9 -15 -4 -15 -14 0 -20
11 -18 31 1 4 -11 17 -26 30 -26 23 -26 23 -7 1 10 -13 20 -33 22 -45 3 -21 2
-21 -9 -2 -14 23 -34 45 -42 45 -3 0 -6 -66 -6 -146 l0 -146 142 4 c78 2 130
0 117 -3 -13 -4 -77 -7 -141 -8 l-118 -1 0 -196 c0 -174 2 -195 15 -184 12 10
15 10 15 -4 0 -9 4 -16 10 -16 5 0 7 21 3 50 -6 49 -5 50 20 50 18 0 25 4 21
14 -3 7 2 16 12 20 12 5 15 2 9 -11 -4 -10 -9 -34 -11 -53 -4 -29 -1 -26 12
15 18 56 20 108 4 113 -19 7 -11 42 9 42 11 0 21 6 23 12 3 9 12 8 32 -6 l28
-18 -33 -30 -34 -29 38 27 c21 15 59 34 85 41 38 11 40 13 12 9 -19 -2 -43 -7
-52 -11 -13 -5 -18 -2 -18 9 0 10 9 16 23 17 146 7 242 7 258 -2 11 -5 19 -20
19 -34 0 -14 5 -25 11 -25 8 0 10 -18 5 -61 -10 -81 -14 -89 -47 -89 -24 0
-29 -4 -29 -25 0 -18 5 -25 20 -25 13 0 20 -7 20 -20 0 -11 -7 -20 -15 -20 -8
0 -15 -9 -15 -20 0 -11 5 -20 10 -20 6 0 10 -7 10 -15 0 -11 -19 -15 -87 -18
l-88 -3 87 -2 87 -2 4 -47 4 -48 -1 53 c-1 47 1 52 20 52 29 0 51 -25 29 -34
-8 -3 -15 -1 -15 4 0 6 -4 10 -10 10 -5 0 -10 -7 -10 -15 0 -8 5 -15 10 -15
14 0 12 -114 -2 -128 -20 -20 -28 -14 -30 26 l-1 37 -4 -33 c-3 -18 1 -39 6
-46 11 -14 -12 -28 -64 -39 -18 -4 -18 -5 2 -6 12 0 24 -5 27 -9 3 -5 -8 -6
-25 -4 -32 5 -35 -3 -20 -56 9 -28 7 -32 -10 -32 -27 0 -24 -20 4 -21 l22 0
-23 -11 c-14 -7 -21 -17 -17 -26 3 -8 -2 -25 -10 -39 -9 -13 -12 -23 -8 -22 4
1 15 1 23 0 13 -1 13 -2 0 -11 -23 -15 -40 -12 -41 8 -1 9 -4 4 -8 -13 -5 -26
-13 -32 -52 -41 -25 -7 -69 -15 -97 -19 l-52 -7 -2 69 -2 68 -3 -58 c-3 -40
-8 -57 -16 -54 -7 2 -10 16 -8 33 3 16 4 43 3 59 0 17 -2 38 -2 49 -1 14 -7
17 -26 13 -22 -4 -24 -1 -24 34 0 22 5 39 10 39 16 0 11 37 -6 44 -41 16 -41
20 -43 -336 l-2 -342 22 28 c12 15 33 32 46 37 69 26 452 96 582 106 73 5 78
4 109 -21 22 -19 37 -46 51 -89 29 -94 53 -233 54 -314 1 -64 -1 -75 -23 -99
-14 -14 -36 -30 -50 -36 -85 -33 -589 -114 -639 -103 -70 15 -106 100 -144
335 -2 14 -5 -125 -5 -309 -1 -292 0 -332 13 -315 20 26 20 -2 0 -36 -9 -15
-14 -53 -15 -97 l0 -71 44 -39 c48 -42 76 -58 119 -68 20 -4 27 -10 23 -20 -4
-13 10 -15 84 -15 l88 0 -9 35 c-6 20 -18 50 -28 68 -10 18 -46 82 -80 143
l-62 112 17 41 c31 79 92 105 314 137 63 9 218 33 344 55 321 55 344 53 419
-30 44 -49 57 -92 97 -326 17 -99 33 -192 36 -208 5 -25 9 -27 53 -27 l48 0
-13 52 c-33 126 26 220 182 293 116 54 157 61 228 41 56 -16 98 -49 147 -116
l26 -34 43 17 c32 12 47 14 62 6 23 -12 118 -203 118 -236 0 -19 5 -23 34 -23
l35 0 3 208 3 209 30 49 c23 37 44 55 85 76 l55 27 421 7 c457 7 468 6 525
-47 26 -24 34 -27 52 -18 12 6 3 -5 -20 -25 -60 -52 -74 -98 -71 -226 l3 -105
38 3 c34 3 37 1 37 -22 0 -45 26 -59 93 -52 33 3 73 6 88 6 39 0 73 34 65 66
-6 21 -3 24 24 24 18 0 45 11 63 24 61 46 117 66 193 66 60 0 81 -5 133 -31
l63 -32 117 8 c64 4 117 8 119 10 7 7 -22 200 -31 206 -5 4 -1 12 10 18 12 6
23 21 27 34 8 32 72 96 112 113 32 13 156 32 479 71 77 10 132 19 123 21 -11
2 -19 13 -19 30 -1 22 -3 23 -6 6 -3 -15 -10 -20 -26 -17 -12 2 -50 0 -84 -5
-53 -7 -63 -6 -66 7 -3 11 -5 9 -6 -6 -1 -20 -7 -21 -98 -26 -158 -7 -344 -44
-374 -74 -12 -12 -102 -5 -110 9 -4 6 -9 5 -13 -3 -3 -8 -3 -3 0 11 3 14 10
124 15 245 7 164 7 230 -2 257 -8 25 -10 72 -5 143 5 77 4 105 -4 100 -8 -5
-11 18 -9 78 1 46 -1 90 -5 96 -4 6 -5 20 -1 30 4 13 0 23 -12 30 -10 6 -14
11 -10 11 14 0 -49 49 -77 60 -15 5 -99 10 -186 10 -87 0 -171 5 -186 10 -20
8 -29 7 -38 -4 -9 -11 -57 -15 -246 -19 -129 -2 -190 -1 -135 2 l100 7 -127 2
c-119 2 -185 -8 -174 -26 2 -4 -3 -8 -12 -9 -68 -4 -70 -5 -65 -43 l5 -37 -68
-11 c-459 -73 -805 -125 -808 -121 -2 2 -7 30 -10 61 -8 74 -21 108 -42 108
-43 0 4 12 142 35 82 14 172 30 201 35 l51 11 -1 95 c-2 80 -4 93 -17 87 -17
-7 -192 -12 -185 -4 9 8 -56 42 -67 35 -6 -4 -8 -3 -5 3 4 6 -5 19 -19 28 -15
9 -23 12 -19 5 5 -8 3 -11 -6 -8 -8 3 -13 10 -12 16 1 5 -5 16 -14 24 -14 11
-16 11 -8 -1 9 -15 14 -64 6 -55 -9 8 -39 -49 -34 -65 3 -12 2 -13 -4 -3 -7 9
-15 6 -34 -14 -63 -69 -190 -93 -278 -54 -23 11 -48 17 -54 13 -5 -3 -7 -1 -4
4 8 12 -20 39 -30 30 -10 -10 -32 13 -27 27 5 13 -24 44 -35 38 -3 -2 -7 2
-10 9 -2 6 1 9 6 6 5 -3 2 17 -8 46 -21 59 -24 116 -9 167 5 19 6 38 2 42 -9
9 -15 -38 -16 -119 -1 -60 -2 -62 -17 -41 -13 17 -18 60 -24 217 -4 108 -4
214 0 236 5 30 4 36 -4 25 -9 -13 -11 -13 -11 2 0 9 -2 23 -5 30 -4 11 15 17
82 26 170 25 169 25 153 12 -12 -9 -10 -10 9 -5 13 4 26 3 30 -2 4 -6 19 -6
39 -1 26 7 32 13 27 26 -3 9 -3 14 0 10 4 -3 14 0 23 8 77 67 103 76 358 129
134 28 202 34 244 23 l25 -7 -6 137 c-4 75 -7 154 -8 176 l-1 39 -74 -7 -73
-7 -7 47 c-11 84 -8 141 10 148 9 3 46 6 82 7 47 0 61 3 47 9 -11 5 -15 9 -8
9 7 1 12 34 15 99 3 67 10 109 22 137 11 22 18 43 18 47 -1 5 1 7 6 6 4 -2 23
9 42 24 47 35 99 48 196 48 l82 0 7 -79 c4 -44 4 -85 0 -90 -3 -6 -33 -11 -66
-11 -67 0 -104 -14 -95 -36 3 -9 1 -12 -4 -9 -6 4 -10 -22 -10 -69 l0 -76 90
0 91 0 -6 -62 c-3 -35 -8 -78 -11 -95 l-5 -33 -75 0 -75 0 7 -192 c3 -106 8
-195 11 -198 2 -2 174 -4 381 -3 216 1 393 -3 415 -8 46 -12 109 -66 131 -113
9 -19 16 -57 16 -85 0 -28 5 -51 10 -51 6 0 10 11 10 25 0 24 25 36 32 15 3
-8 44 -16 182 -35 15 -3 36 -7 46 -10 11 -3 38 4 62 17 35 18 59 23 128 23 96
0 149 -19 210 -78 33 -31 44 -34 155 -51 66 -9 124 -21 129 -26 4 -5 3 -120
-4 -263 -9 -203 -9 -264 1 -297 11 -35 10 -43 -2 -51 -18 -11 -40 -10 306 -9
281 1 337 -5 349 -35 3 -8 -2 -22 -12 -31 -14 -14 -16 -37 -15 -143 0 -69 3
-148 6 -176 3 -27 11 -133 18 -235 6 -102 15 -189 19 -195 4 -5 8 -45 9 -89 1
-67 -1 -77 -15 -72 -9 3 -40 6 -69 6 -48 0 -54 2 -57 23 -3 17 -5 15 -9 -12
l-6 -33 51 6 c74 8 121 -8 172 -61 24 -25 44 -51 44 -59 0 -25 17 -15 30 17
15 36 89 95 128 103 15 2 49 8 75 11 l49 6 -44 28 c-24 15 -58 45 -77 66 -95
109 -106 280 -25 401 21 31 22 35 5 18 -12 -11 -32 -45 -44 -75 -13 -33 -28
-54 -35 -51 -6 2 -15 -3 -18 -12 -3 -9 -13 -16 -21 -16 -8 0 -27 -6 -41 -14
-15 -8 -35 -17 -44 -20 -13 -4 -18 -16 -18 -41 0 -32 -18 -51 -22 -22 0 6 -4
-10 -7 -38 -5 -39 -8 -21 -14 85 -4 74 -12 205 -18 290 -14 187 -9 247 26 305
48 82 141 114 335 115 72 0 76 -1 78 -24 1 -13 13 -47 27 -75 24 -47 35 -55
72 -54 7 1 10 -4 6 -10 -4 -6 0 -8 10 -4 8 3 20 0 24 -6 16 -21 9 -42 -14 -45
-12 -2 -25 -13 -29 -25 -3 -12 -24 -39 -46 -59 -38 -36 -44 -64 -11 -51 11 4
14 3 9 -5 -4 -7 -15 -12 -25 -12 -9 0 -26 -7 -37 -14 -16 -13 -10 -12 35 1 49
14 172 16 185 2 3 -2 0 -23 -5 -45 l-11 -41 -43 5 c-53 6 -124 -6 -106 -18 9
-5 10 -10 3 -14 -6 -3 -13 -2 -17 4 -10 16 -19 12 -64 -26 -25 -22 -40 -42
-37 -51 3 -8 2 -11 -4 -8 -12 8 -28 -24 -41 -84 -22 -104 28 -218 116 -268 61
-34 103 -30 149 14 80 78 116 200 116 393 0 67 3 119 8 117 4 -3 5 16 4 42 -5
62 27 101 112 140 38 17 74 43 94 66 l31 39 23 -50 c30 -64 32 -182 4 -234
-45 -85 -100 -113 -172 -85 -24 9 -44 20 -44 25 0 5 22 25 50 45 51 38 120
111 120 128 0 6 -13 -8 -28 -29 -46 -63 -145 -126 -171 -109 -13 8 -14 11 4
-55 40 -147 -2 -307 -110 -422 -37 -40 -41 -48 -24 -48 59 0 144 75 174 154
17 44 17 129 0 181 -5 17 1 24 30 38 20 9 37 17 39 17 15 0 31 -78 31 -150 -1
-104 -24 -160 -100 -235 l-50 -50 79 3 79 4 -35 -31 c-20 -17 -41 -44 -48 -61
-25 -61 -9 -112 126 -392 l128 -268 226 0 225 1 -40 20 c-67 33 -104 78 -161
196 l-54 113 -46 -22 c-53 -26 -46 -32 -100 89 l-37 82 31 35 c42 48 56 102
41 160 -19 78 -14 85 123 150 68 32 129 61 136 63 8 3 25 -23 47 -71 19 -42
39 -76 45 -76 6 0 10 71 10 204 l0 204 -33 11 c-48 16 -103 65 -125 113 -11
24 -35 121 -53 216 l-33 172 -106 1 c-58 1 -94 4 -80 6 l25 4 -12 207 c-6 114
-12 213 -12 221 -1 11 -15 12 -75 7 l-73 -7 -7 38 c-3 21 -6 63 -6 94 0 55 1
57 31 63 17 3 52 6 77 6 l45 0 -6 81 c-10 144 24 223 115 274 39 21 65 27 146
32 l99 6 6 -33 c4 -18 7 -59 7 -91 l0 -59 -54 0 c-106 0 -129 -25 -119 -132
l5 -63 90 3 89 4 -6 -64 c-13 -135 -6 -124 -87 -132 -40 -3 -73 -8 -75 -10 -2
-2 2 -101 9 -221 l12 -218 74 7 c41 3 88 6 104 6 l28 0 0 705 0 704 -50 22
c-61 26 -143 111 -175 182 -22 47 -108 367 -101 374 1 2 35 13 75 25 56 17 74
19 80 9 4 -6 23 -76 41 -154 35 -150 62 -217 104 -256 l26 -24 0 136 c0 117
-2 137 -15 137 -9 0 -27 11 -40 25 -45 44 -26 116 38 138 16 6 17 27 17 247
l0 240 -207 -1 -208 0 65 -32 c71 -35 110 -81 110 -129 0 -110 -138 -207 -277
-196 -48 4 -61 10 -85 37 -32 35 -37 84 -14 129 19 37 42 56 104 87 50 25 52
28 38 44 -9 10 -16 24 -16 32 0 10 -16 15 -57 17 -129 6 -1463 12 -1463 6 0
-4 9 -59 19 -123 24 -144 45 -310 39 -316 -5 -5 -135 7 -324 31 -160 19 -199
12 -260 -50 -32 -32 -43 -51 -48 -87 l-7 -45 -90 -14 c-100 -14 -122 -9 -196
47 -54 42 -69 85 -108 309 -19 115 -38 219 -40 232 -5 21 -9 22 -135 22 -72 0
-130 -2 -130 -4 0 -6 30 -137 36 -158 4 -14 10 -15 62 -2 66 15 59 20 124 -89
39 -64 40 -68 24 -92 -9 -13 -28 -36 -43 -50 -24 -22 -34 -25 -68 -19 -58 9
-61 14 -18 34 21 9 47 27 57 39 18 20 19 22 1 54 -36 68 -36 67 -88 50 -43
-14 -49 -14 -72 1 -25 17 -44 68 -66 176 l-12 60 -98 0 c-98 0 -99 0 -94 -22
32 -151 67 -273 84 -297 12 -16 21 -31 21 -33 0 -1 -24 -3 -52 -3 -29 0 -63
-4 -75 -8 -19 -7 -25 -3 -41 30 -11 21 -30 86 -43 146 l-22 107 -34 -6 c-66
-12 -67 -12 -79 36 l-11 45 -126 3 -127 3 0 -33 c-1 -49 -31 -108 -79 -151
-54 -48 -58 -50 -237 -81 -179 -31 -215 -32 -274 -5 -84 38 -125 93 -144 196
l-12 68 -40 3 -39 3 3 -244z m3873 143 c25 -14 49 -62 49 -100 0 -62 -49 -100
-130 -100 -41 0 -90 31 -91 58 0 9 -5 1 -12 -18 -23 -68 -117 -91 -167 -41
l-29 28 6 -29 c4 -20 1 -33 -8 -38 -20 -13 -29 -2 -29 36 0 36 -14 42 -69 27
-21 -5 -22 -10 -17 -44 3 -22 5 -39 4 -39 -2 -1 -20 -3 -40 -6 -30 -4 -39 -2
-48 15 -19 36 -90 18 -90 -24 0 -12 -29 -30 -36 -22 -2 2 7 46 20 98 15 61 28
95 37 97 9 2 34 -27 64 -74 27 -43 50 -73 52 -68 2 6 -3 43 -10 83 -12 63 -12
73 0 78 19 7 33 -14 33 -49 0 -25 2 -27 33 -22 57 10 58 11 51 54 -6 36 -5 40
15 40 17 0 21 -6 22 -37 1 -22 4 -29 6 -16 6 31 48 70 84 77 39 8 97 -16 109
-46 8 -22 9 -22 9 -2 1 26 37 73 65 84 30 12 94 12 117 0z m-718 -152 c-21
-53 -24 -72 -19 -120 6 -53 5 -58 -12 -58 -16 0 -21 10 -27 48 -5 34 -19 62
-51 104 -49 63 -51 68 -26 67 9 0 31 -18 49 -40 l32 -40 16 37 c8 20 15 40 15
45 0 10 32 29 42 23 3 -2 -5 -32 -19 -66z m807 21 c0 -5 -4 -9 -10 -9 -5 0
-10 7 -10 16 0 8 5 12 10 9 6 -3 10 -10 10 -16z m8 -41 c-3 -7 -11 -13 -18
-13 -7 0 -15 6 -17 13 -3 7 4 12 17 12 13 0 20 -5 18 -12z m-3061 -144 c-3 -3
-12 -4 -19 -1 -8 3 -5 6 6 6 11 1 17 -2 13 -5z m-82 -16 c-27 -5 -93 -18 -145
-28 -166 -32 -288 -52 -300 -48 -6 2 39 12 102 22 62 11 163 29 223 42 61 12
124 22 140 22 21 0 14 -3 -20 -10z m-475 -82 c0 -2 -11 -6 -25 -8 -13 -3 -22
-1 -19 3 5 9 44 13 44 5z m-207 -33 c-7 -2 -19 -2 -25 0 -7 3 -2 5 12 5 14 0
19 -2 13 -5z m3831 -45 c35 -1 47 -3 29 -5 -18 -2 -33 -8 -33 -14 0 -5 -7 -9
-15 -9 -8 0 -15 5 -15 10 0 6 -30 10 -69 10 -42 0 -73 5 -77 12 -5 8 9 9 56 5
35 -4 90 -8 124 -9z m46 -33 c0 -9 -9 -15 -25 -15 -26 0 -34 15 -12 23 23 10
37 7 37 -8z m-80 -25 c0 -5 -2 -10 -4 -10 -3 0 -8 5 -11 10 -3 6 -1 10 4 10 6
0 11 -4 11 -10z m-2294 -45 c76 -14 207 -42 289 -62 132 -32 154 -40 183 -69
30 -30 32 -36 32 -102 0 -38 -10 -116 -21 -173 -41 -203 -78 -259 -169 -259
-78 0 -472 77 -591 116 -62 20 -90 52 -96 109 -9 79 37 317 77 396 40 78 77
83 296 44z m1593 -85 c104 -52 115 -203 20 -271 -43 -30 -115 -36 -163 -14
-90 43 -118 168 -54 241 57 65 127 80 197 44z m491 -25 l46 -45 47 16 c33 11
72 15 130 13 69 -3 94 -9 149 -37 85 -41 152 -109 192 -192 29 -60 31 -73 31
-170 0 -146 -3 -150 -111 -150 l-84 0 -6 30 c-9 40 -26 38 -74 -10 -38 -38
-42 -40 -105 -40 -36 0 -65 3 -65 8 0 4 13 30 30 59 29 51 89 107 144 135 l30
16 -156 158 -155 158 -45 -26 c-50 -30 -118 -100 -143 -148 l-17 -32 -48 47
c-47 46 -48 49 -35 74 22 43 92 117 142 150 25 17 49 31 52 31 3 0 26 -20 51
-45z m-862 5 c154 -94 36 -326 -132 -256 -107 44 -109 207 -4 259 45 22 96 21
136 -3z m-337 -23 c60 -41 77 -113 39 -174 -57 -93 -194 -79 -230 25 -40 117
89 218 191 149z m-3066 -79 c2 -2 2 -21 -2 -41 -6 -36 -6 -37 -52 -37 -69 0
-118 -17 -161 -56 -147 -133 -92 -387 93 -436 41 -11 52 -10 75 3 33 18 88 97
102 147 23 78 32 205 22 297 -6 50 -9 91 -7 93 8 8 43 -109 50 -164 13 -115
-30 -248 -111 -343 -34 -40 -36 -43 -13 -36 83 26 147 84 168 154 15 53 14
130 -4 181 -8 24 -14 44 -13 44 2 1 18 9 37 20 28 15 35 16 42 5 20 -32 34
-99 34 -169 0 -93 -32 -169 -100 -234 -66 -64 -137 -89 -240 -84 -94 5 -140
25 -206 90 -68 66 -93 126 -97 230 -4 76 -1 94 21 142 45 99 129 172 224 196
36 9 129 8 138 -2z m4216 -275 c175 -180 195 -203 179 -213 -7 -4 -19 -6 -25
-3 -7 2 -20 -3 -29 -12 -12 -13 -16 -36 -16 -101 0 -84 0 -85 -22 -79 -58 18
-143 94 -186 166 -34 56 -55 155 -49 224 6 64 24 125 36 125 4 0 55 -48 112
-107z m-1173 68 c38 -27 62 -78 62 -133 0 -71 1 -70 -146 -53 -71 8 -133 15
-138 15 -5 0 -6 23 -3 51 15 122 134 185 225 120z m322 -6 c60 -30 95 -103 85
-176 -4 -27 -10 -51 -13 -53 -10 -6 -275 24 -292 33 -10 5 -14 21 -11 52 5 75
46 129 118 154 39 14 70 11 113 -10z m369 -15 c72 -36 108 -107 97 -193 -3
-28 -9 -54 -13 -58 -9 -9 -328 23 -339 33 -3 4 -1 35 5 69 13 74 47 124 105
150 53 24 97 24 145 -1z m-2382 -32 c-3 -7 -5 -2 -5 12 0 14 2 19 5 13 2 -7 2
-19 0 -25z m-1907 -108 c0 -5 -5 -10 -11 -10 -5 0 -7 5 -4 10 3 6 8 10 11 10
2 0 4 -4 4 -10z m-583 -47 c-4 -3 -2 -12 4 -19 12 -14 -4 -29 -21 -19 -10 6 4
45 17 45 3 0 3 -3 0 -7z m448 -18 c-39 -32 -54 -32 -18 0 15 13 33 24 38 25 6
0 -3 -11 -20 -25z m-345 5 c0 -5 6 -10 14 -10 7 0 20 -7 27 -17 13 -15 12 -15
-7 -5 -12 6 -24 9 -27 6 -11 -12 -46 7 -40 22 6 16 33 19 33 4z m-167 -55 c-3
-9 -8 -14 -10 -11 -3 3 -2 9 2 15 9 16 15 13 8 -4z m247 5 c0 -5 7 -7 15 -4 8
4 15 4 15 1 0 -13 -30 -14 -40 -1 -9 10 -9 14 -1 14 6 0 11 -4 11 -10z m195 0
c-3 -5 -11 -10 -16 -10 -6 0 -7 5 -4 10 3 6 11 10 16 10 6 0 7 -4 4 -10z
m-475 -25 c-7 -8 -17 -15 -23 -15 -6 0 -2 7 9 15 25 19 30 19 14 0z m367 9
c-3 -3 -12 -4 -19 -1 -8 3 -5 6 6 6 11 1 17 -2 13 -5z m3416 -4 c16 0 30 -7
34 -16 6 -17 -35 -294 -46 -305 -3 -4 -42 -2 -86 5 l-80 11 1 50 c1 68 23 189
38 210 7 10 32 19 60 22 47 6 48 6 25 20 l-24 14 25 -5 c14 -3 38 -6 53 -6z
m-3988 -28 c-3 -3 -11 0 -18 7 -9 10 -8 11 6 5 10 -3 15 -9 12 -12z m122 -8
c-3 -3 -12 -4 -19 -1 -8 3 -5 6 6 6 11 1 17 -2 13 -5z m4101 -104 c34 -27 50
-32 138 -42 54 -6 108 -14 120 -18 28 -11 26 -40 -3 -51 -13 -5 -22 -13 -19
-18 3 -5 -2 -15 -11 -22 -14 -12 -15 -11 -9 11 6 24 6 24 -6 5 -13 -21 -41
-23 -130 -12 -21 2 -38 0 -38 -4 0 -5 7 -9 15 -9 25 0 17 -15 -9 -16 -18 -1
-23 2 -19 14 5 12 1 14 -20 8 -29 -7 -34 2 -14 24 10 12 9 12 -5 1 -25 -18
-48 -7 -48 24 0 15 -4 24 -10 20 -6 -4 -8 -9 -6 -13 2 -4 -3 -14 -12 -22 -14
-13 -15 -12 -9 3 5 12 0 18 -18 23 -14 3 -25 10 -25 15 0 6 8 5 19 -1 26 -13
28 -13 35 6 3 8 2 13 -3 9 -12 -7 -41 4 -41 16 0 12 -42 54 -54 54 -5 0 -11 7
-14 15 -3 8 -1 12 3 8 5 -4 15 -2 23 5 13 10 15 9 9 -5 -3 -10 -2 -18 3 -18 6
0 10 5 10 11 0 6 12 9 28 7 16 -2 26 2 25 9 -4 19 52 -2 95 -37z m-3950 -87
c-27 -2 -69 -2 -95 0 -27 2 -5 3 47 3 52 0 74 -1 48 -3z m119 1 c-3 -3 -12 -4
-19 -1 -8 3 -5 6 6 6 11 1 17 -2 13 -5z m1505 -26 c-9 -9 -15 -9 -24 0 -9 9
-7 12 12 12 19 0 21 -3 12 -12z m-1822 -8 c0 -5 -4 -10 -10 -10 -5 0 -10 5
-10 10 0 6 5 10 10 10 6 0 10 -4 10 -10z m387 -45 c0 -8 -4 -12 -9 -9 -4 3 -8
9 -8 15 0 5 4 9 8 9 5 0 9 -7 9 -15z m3960 -11 c-3 -3 -12 -4 -19 -1 -8 3 -5
6 6 6 11 1 17 -2 13 -5z m777 -8 c56 -17 126 -61 126 -79 -1 -6 -21 -30 -46
-51 l-46 -39 -38 22 c-48 27 -118 28 -170 1 -101 -51 -127 -192 -53 -281 66
-78 211 -80 271 -4 38 48 31 55 -58 55 l-80 0 0 69 0 70 143 -5 c78 -3 148 -8
156 -10 10 -3 13 -21 9 -77 -8 -125 -64 -214 -166 -264 -77 -38 -190 -39 -269
-4 -139 62 -219 227 -178 366 53 183 226 283 399 231z m-5074 -16 c0 -5 -9
-10 -20 -10 -11 0 -20 5 -20 10 0 6 9 10 20 10 11 0 20 -4 20 -10z m349 -42
c-1 -20 -2 -21 -6 -3 -3 11 -9 24 -14 30 -16 16 -10 27 6 11 8 -8 14 -25 14
-38z m-72 16 c-3 -3 -12 -4 -19 -1 -8 3 -5 6 6 6 11 1 17 -2 13 -5z m5259
-114 c22 0 24 -4 24 -54 l0 -55 53 -3 c42 -2 52 -6 51 -20 -1 -10 -2 -29 -3
-43 -1 -23 -4 -25 -56 -25 l-55 0 0 -50 0 -50 -45 0 -45 0 0 55 0 55 -50 0
-50 0 0 45 0 45 55 0 55 0 0 48 c0 53 6 66 28 57 7 -3 25 -5 38 -5z m-5179
-187 c-2 -16 -4 -5 -4 22 0 28 2 40 4 28 2 -13 2 -35 0 -50z m1035 14 c0 -4
-5 -43 -12 -87 -20 -130 -40 -90 -23 48 4 38 10 52 20 50 8 -2 14 -6 15 -11z
m-792 -9 c0 -7 -14 -35 -30 -63 -24 -40 -30 -62 -30 -108 0 -50 -2 -58 -17
-55 -14 2 -19 16 -23 58 -4 40 -14 70 -37 106 -37 57 -39 64 -18 64 8 0 28
-20 43 -45 l28 -46 32 51 c30 48 52 64 52 38z m687 -8 c64 -39 61 -140 -6
-174 -62 -33 -134 -14 -162 42 l-17 32 -6 -25 c-20 -79 -163 -74 -188 6 -5 16
-6 10 -3 -17 4 -30 1 -43 -9 -47 -21 -8 -26 2 -26 46 0 39 0 39 -31 33 -17 -3
-38 -6 -45 -6 -10 0 -14 -13 -14 -40 0 -28 -4 -40 -14 -40 -17 0 -30 79 -24
145 4 56 32 55 36 0 l3 -40 45 4 45 3 -3 36 c-2 28 1 37 15 40 14 3 17 -5 18
-45 1 -27 4 -37 6 -23 17 92 160 99 190 10 9 -27 12 -30 12 -12 2 77 103 118
178 72z m-1013 -35 c3 -9 0 -12 -9 -9 -7 3 -16 12 -19 19 -3 9 0 12 9 9 7 -3
16 -12 19 -19z m426 -61 c22 -47 40 -88 40 -90 0 -2 -7 -4 -15 -4 -9 0 -21 11
-27 25 -9 19 -19 25 -45 25 -27 0 -35 -5 -43 -25 -8 -22 -40 -36 -40 -19 0 26
66 174 77 174 8 0 32 -39 53 -86z m-443 40 c-3 -3 -12 -4 -19 -1 -8 3 -5 6 6
6 11 1 17 -2 13 -5z m113 -61 c0 -24 -3 -33 -9 -25 -7 12 -4 62 5 62 2 0 4
-17 4 -37z m995 -61 c0 -18 -20 -15 -23 4 -3 10 1 15 10 12 7 -3 13 -10 13
-16z m-998 -14 c-3 -8 -6 -5 -6 6 -1 11 2 17 5 13 3 -3 4 -12 1 -19z m-57 -51
c0 -8 -6 -14 -14 -14 -8 0 -12 6 -9 14 3 7 9 13 14 13 5 0 9 -6 9 -13z m57
-19 c-3 -7 -5 -2 -5 12 0 14 2 19 5 13 2 -7 2 -19 0 -25z m10 -55 c-3 -10 -5
-4 -5 12 0 17 2 24 5 18 2 -7 2 -21 0 -30z m-227 -63 c-8 -5 -18 -6 -24 -3 -5
4 -1 10 10 13 24 9 34 2 14 -10z m161 -17 c-12 -20 -14 -14 -5 12 4 9 9 14 11
11 3 -2 0 -13 -6 -23z m1290 8 c30 -1 95 -43 92 -59 -2 -6 3 -9 11 -6 9 3 21
-10 34 -38 23 -47 45 -131 32 -123 -7 4 4 -74 14 -101 2 -6 -2 -11 -10 -11 -7
0 -13 7 -12 16 1 9 0 27 -1 41 l-2 25 -9 -22 c-5 -13 -15 -24 -22 -24 -7 -1
-17 -2 -23 -4 -5 -1 -16 -3 -22 -3 -9 -2 -11 -15 -6 -47 5 -41 4 -45 -16 -45
-11 0 -21 6 -21 14 0 19 -33 10 -56 -15 -16 -18 -15 -21 21 -60 58 -65 88
-140 93 -236 3 -60 0 -97 -12 -133 -9 -28 -14 -56 -10 -62 5 -7 2 -8 -6 -3
-10 6 -12 4 -7 -9 4 -10 3 -15 -3 -11 -5 3 -16 -7 -24 -23 -21 -40 -96 -106
-154 -136 -110 -56 -229 -56 -348 -2 -133 61 -233 217 -234 363 0 37 -4 44
-30 58 -17 9 -36 13 -42 9 -7 -4 -8 -3 -4 4 3 6 -3 16 -15 22 -18 10 -20 17
-14 48 4 20 18 58 31 84 26 50 25 68 0 21 -30 -55 -32 -56 -56 -43 -17 9 -20
17 -16 36 5 17 2 26 -9 31 -9 3 -14 12 -11 19 3 7 1 16 -3 19 -5 2 -12 30 -16
60 -3 30 -13 61 -21 69 -12 13 -9 17 20 35 18 12 186 64 372 117 187 53 366
104 399 114 33 9 66 16 75 15 8 -2 27 -4 41 -4z m-1481 -81 c0 -5 -4 -10 -10
-10 -5 0 -10 5 -10 10 0 6 5 10 10 10 6 0 10 -4 10 -10z m5853 -17 c-7 -2 -19
-2 -25 0 -7 3 -2 5 12 5 14 0 19 -2 13 -5z m-60 -10 c-7 -2 -19 -2 -25 0 -7 3
-2 5 12 5 14 0 19 -2 13 -5z m-103 -38 c7 -8 17 -12 24 -8 6 3 8 3 4 -1 -3 -4
4 -23 17 -43 23 -33 65 -133 65 -153 0 -26 -19 -4 -40 47 -13 31 -30 64 -39
73 -9 9 -17 23 -19 30 -2 8 -12 26 -23 42 -21 29 -11 40 11 13z m-3845 -5
c-16 -4 -41 -8 -55 -8 l-25 0 25 8 c14 4 39 8 55 8 l30 0 -30 -8z m-160 -152
c95 -322 147 -514 136 -502 -5 5 -20 50 -34 99 -14 50 -48 168 -76 263 -28 95
-51 178 -51 183 0 23 10 5 25 -43z m1540 7 c16 -15 25 -36 26 -57 5 -248 17
-396 36 -438 26 -60 72 -97 128 -106 124 -18 197 37 198 151 1 104 -46 147
-171 153 -74 4 -85 7 -102 30 -20 25 -25 57 -14 87 11 28 60 45 133 45 134 0
235 -62 289 -178 23 -48 27 -71 27 -142 0 -73 -4 -93 -28 -142 -31 -64 -80
-111 -146 -142 -37 -17 -65 -21 -146 -21 -89 0 -106 3 -157 28 -91 45 -152
125 -182 241 -8 31 -17 138 -21 257 -7 200 -7 205 15 232 29 36 81 37 115 2z
m2453 -62 c-16 -2 -40 -2 -55 0 -16 2 -3 4 27 4 30 0 43 -2 28 -4z m-3097 -93
c11 -58 13 -61 38 -56 101 20 101 20 101 -7 0 -22 -5 -27 -37 -32 -88 -14 -84
-11 -76 -58 11 -71 10 -82 -14 -85 -17 -3 -22 3 -27 27 -20 103 -12 93 -69 86
-29 -4 -56 -8 -62 -9 -5 0 -10 10 -10 24 0 23 5 26 58 34 31 4 57 13 57 20 -1
6 -5 31 -10 56 -9 51 -6 60 20 60 15 0 21 -12 31 -60z m-1061 31 c0 -5 -6 -11
-12 -14 -9 -3 -5 -11 11 -24 17 -14 21 -22 12 -27 -6 -4 -10 -3 -9 2 2 6 -1
10 -5 10 -8 1 -47 41 -47 48 0 2 7 1 15 -2 8 -4 15 -1 15 5 0 6 5 11 10 11 6
0 10 -4 10 -9z m815 -26 c-16 -14 -38 -25 -49 -25 -16 0 -15 -3 6 -20 58 -45
62 -128 9 -200 -17 -24 -31 -47 -31 -51 0 -5 24 -24 53 -43 71 -45 97 -79 97
-128 0 -102 -103 -178 -241 -178 -96 0 -149 39 -149 110 0 68 56 125 148 150
41 11 43 12 28 29 -9 10 -16 25 -16 34 0 13 -9 17 -40 17 -80 0 -140 57 -140
132 0 50 12 78 49 114 35 34 79 50 191 69 115 20 121 19 85 -10z m3220 -55
c-3 -5 -11 -10 -16 -10 -6 0 -7 5 -4 10 3 6 11 10 16 10 6 0 7 -4 4 -10z
m-4000 -9 c3 -5 1 -12 -4 -15 -5 -3 -11 1 -15 9 -6 16 9 21 19 6z m3953 -21
c-7 -11 -17 -20 -22 -20 -5 0 -1 9 9 20 10 11 20 20 22 20 2 0 -2 -9 -9 -20z
m-4871 -12 c-3 -8 -6 -5 -6 6 -1 11 2 17 5 13 3 -3 4 -12 1 -19z m4808 -86
c-15 -16 -16 -15 -4 12 7 15 15 23 17 16 3 -7 -3 -19 -13 -28z m-138 -54 c-3
-8 -6 -5 -6 6 -1 11 2 17 5 13 3 -3 4 -12 1 -19z m-3460 -210 c-3 -8 -6 -5 -6
6 -1 11 2 17 5 13 3 -3 4 -12 1 -19z m1 -193 c-3 -3 -9 2 -12 12 -6 14 -5 15
5 6 7 -7 10 -15 7 -18z m1840 -102 c-16 -2 -40 -2 -55 0 -16 2 -3 4 27 4 30 0
43 -2 28 -4z m-344 -50 c3 -21 9 -95 12 -164 l7 -126 -29 0 c-16 0 -56 -1 -89
-3 l-60 -4 -8 75 c-4 40 -6 99 -5 129 3 54 4 55 48 78 32 16 54 20 77 16 21
-4 33 -2 33 5 0 6 -20 11 -47 12 -36 0 -43 3 -28 9 11 5 34 9 51 9 29 1 32 -2
38 -36z m353 -7 c3 -3 12 -1 20 5 10 9 13 8 13 0 0 -8 8 -10 21 -6 15 5 19 4
15 -4 -4 -6 -2 -11 3 -11 6 0 11 5 11 11 0 5 5 7 10 4 6 -4 7 -11 4 -17 -4 -6
0 -14 7 -19 11 -7 11 -9 1 -9 -7 0 -10 -5 -7 -10 4 -6 11 -8 16 -5 5 3 6 -1 3
-9 -3 -9 -10 -16 -16 -16 -5 0 -7 4 -4 9 3 5 0 11 -7 14 -7 3 -13 -5 -13 -20
-2 -30 -13 -41 -23 -24 -7 10 -9 10 -14 -2 -3 -8 -20 -17 -39 -21 -29 -7 -31
-9 -13 -17 15 -7 11 -7 -14 -3 -54 10 -66 12 -66 14 0 1 -21 3 -47 3 -25 1
-50 6 -55 11 -5 5 -1 7 9 3 9 -3 22 1 29 9 10 13 7 14 -22 9 -24 -4 -30 -3
-19 4 13 9 13 12 1 23 -8 7 -11 8 -8 3 3 -6 -5 -15 -18 -21 -20 -10 -22 -9
-18 5 4 9 10 21 14 27 5 6 6 14 2 18 -8 7 15 26 32 26 6 0 3 -5 -5 -10 -27
-18 -1 -10 35 10 19 11 41 17 49 14 8 -3 17 -1 21 5 6 11 81 9 92 -3z m-232
-56 c-4 -6 -11 -8 -16 -4 -6 3 -20 -2 -32 -13 l-22 -18 19 23 c19 21 64 32 51
12z m-285 -270 c0 -7 17 -8 48 -4 108 14 118 13 124 -21 3 -17 -3 -20 -42 -21
-25 -1 -72 -5 -106 -8 l-60 -8 4 36 c3 22 10 36 18 36 8 0 14 -5 14 -10z"/>
<path d="M5880 4070 c-48 -48 -10 -150 56 -150 46 0 74 29 74 79 0 78 -79 122
-130 71z"/>
<path d="M5670 4021 c-17 -33 -12 -89 10 -111 24 -24 48 -25 78 -4 27 18 30
78 6 112 -20 29 -79 31 -94 3z"/>
<path d="M5357 3933 c-15 -15 -6 -43 13 -43 11 0 20 3 20 8 -1 14 -27 42 -33
35z"/>
<path d="M3780 3308 c0 -3 -9 -51 -21 -107 -11 -57 -19 -104 -17 -105 1 -2 53
13 115 32 l112 35 -82 65 c-107 85 -107 85 -107 80z"/>
<path d="M4130 2780 c8 -5 20 -10 25 -10 6 0 3 5 -5 10 -8 5 -19 10 -25 10 -5
0 -3 -5 5 -10z"/>
<path d="M1453 2115 c-27 -19 -37 -59 -23 -101 19 -55 76 -72 121 -35 33 27
33 106 -1 133 -27 22 -68 23 -97 3z"/>
<path d="M1236 2088 c-24 -33 -20 -75 9 -104 27 -27 55 -26 85 2 18 18 19 86
1 108 -20 24 -77 21 -95 -6z"/>
<path d="M920 2056 c0 -8 -3 -21 -6 -30 -5 -12 0 -16 20 -16 26 0 26 0 11 30
-17 33 -25 38 -25 16z"/>
<path d="M2011 1603 c-1 -12 4 -25 9 -28 12 -7 12 2 0 30 -8 19 -9 19 -9 -2z"/>
<path d="M1917 1419 c4 -13 8 -18 11 -10 2 7 -1 18 -6 23 -8 8 -9 4 -5 -13z"/>
<path d="M1730 1396 c0 -2 7 -7 16 -10 8 -3 12 -2 9 4 -6 10 -25 14 -25 6z"/>
<path d="M1281 1273 c-41 -47 -76 -122 -82 -176 -4 -26 4 -32 186 -132 l190
-104 7 40 c10 55 45 122 88 169 l37 40 -141 76 c-78 42 -164 90 -192 106 l-52
29 -41 -48z"/>
<path d="M1757 972 c-16 -17 -47 -83 -47 -99 0 -4 31 -7 69 -5 l70 4 -31 51
c-40 69 -42 70 -61 49z"/>
<path d="M2505 1225 c-14 -13 -25 -32 -25 -41 0 -36 25 -97 51 -126 36 -38 92
-37 121 3 17 23 18 30 7 73 -15 59 -65 116 -103 116 -15 0 -38 -11 -51 -25z"/>
<path d="M2570 868 c-58 -30 -76 -64 -57 -111 19 -44 60 -61 132 -55 73 6 109
32 113 82 4 42 -14 68 -60 92 -38 20 -77 17 -128 -8z"/>
<path d="M2487 4193 c-15 -2 -25 -8 -23 -12 3 -4 -5 -7 -17 -7 -17 1 -23 -6
-25 -25 -2 -17 3 -29 13 -32 15 -7 286 36 305 48 5 3 10 12 10 19 0 11 -26 14
-117 14 -65 0 -130 -3 -146 -5z"/>
<path d="M6523 4076 c-60 -28 -88 -70 -78 -117 10 -42 47 -63 111 -62 136 3
200 116 99 174 -52 30 -76 31 -132 5z"/>
<path d="M853 3443 c9 -2 25 -2 35 0 9 3 1 5 -18 5 -19 0 -27 -2 -17 -5z"/>
<path d="M520 3177 c0 -2 15 -16 33 -33 l32 -29 -29 33 c-28 30 -36 37 -36 29z"/>
<path d="M208 3143 c7 -3 16 -2 19 1 4 3 -2 6 -13 5 -11 0 -14 -3 -6 -6z"/>
<path d="M250 3146 c0 -2 7 -7 16 -10 8 -3 12 -2 9 4 -6 10 -25 14 -25 6z"/>
<path d="M1002 3095 c0 -16 2 -22 5 -12 2 9 2 23 0 30 -3 6 -5 -1 -5 -18z"/>
<path d="M350 3065 c13 -14 26 -25 28 -25 3 0 -5 11 -18 25 -13 14 -26 25 -28
25 -3 0 5 -11 18 -25z"/>
<path d="M312 3060 c0 -14 2 -19 5 -12 2 6 2 18 0 25 -3 6 -5 1 -5 -13z"/>
<path d="M650 3056 c0 -2 8 -10 18 -17 15 -13 16 -12 3 4 -13 16 -21 21 -21
13z"/>
<path d="M991 3034 c0 -11 3 -14 6 -6 3 7 2 16 -1 19 -3 4 -6 -2 -5 -13z"/>
<path d="M1024 3017 c-8 -21 2 -35 16 -21 5 5 6 15 0 24 -8 12 -10 12 -16 -3z"/>
<path d="M284 2998 l-19 -23 23 19 c21 18 27 26 19 26 -2 0 -12 -10 -23 -22z"/>
<path d="M445 2980 c10 -11 20 -20 23 -20 3 0 -3 9 -13 20 -10 11 -20 20 -23
20 -3 0 3 -9 13 -20z"/>
<path d="M223 2973 c9 -2 23 -2 30 0 6 3 -1 5 -18 5 -16 0 -22 -2 -12 -5z"/>
<path d="M470 2931 c-7 -13 -7 -22 0 -26 5 -3 10 3 10 15 0 13 4 19 12 14 7
-4 8 -3 4 4 -10 16 -14 15 -26 -7z"/>
<path d="M2754 2677 c-3 -9 -22 -19 -41 -23 -22 -4 -31 -10 -25 -16 11 -11 4
-50 -8 -43 -11 7 -42 -138 -35 -157 4 -10 0 -18 -10 -20 -10 -2 -2 -8 19 -14
l36 -11 2 61 c1 34 2 71 2 83 0 12 4 20 7 17 4 -2 10 4 14 15 3 11 23 35 45
54 37 34 38 36 19 53 -17 15 -19 15 -25 1z"/>
<path d="M4265 2414 c-184 -65 -224 -316 -72 -450 96 -85 238 -89 343 -9 51
39 94 135 94 209 0 187 -186 314 -365 250z m190 -34 c16 -16 25 -30 20 -30 -5
0 1 -10 12 -22 34 -39 38 -52 10 -34 -27 18 -44 18 -65 -2 -11 -10 -11 -16 -2
-27 11 -13 8 -15 -19 -15 -18 0 -42 5 -53 11 -20 11 -20 13 -5 24 15 11 15 13
-3 32 -10 12 -25 23 -32 26 -7 2 -11 6 -8 9 77 67 103 72 145 28z m56 -146
c19 -38 20 -47 8 -55 -20 -13 -29 -11 -36 7 -3 9 0 20 8 26 11 8 11 9 -3 5 -9
-3 -22 1 -29 9 -9 11 -8 18 6 34 10 11 20 20 21 20 2 0 14 -21 25 -46z m-131
-54 c0 -5 -4 -10 -10 -10 -5 0 -10 5 -10 10 0 6 5 10 10 10 6 0 10 -4 10 -10z
m215 -28 c2 -7 1 -20 -4 -30 -5 -9 -15 -32 -21 -49 -7 -18 -16 -33 -21 -33 -5
0 -12 0 -16 0 -5 0 -8 14 -8 30 0 17 3 30 8 30 4 0 7 5 7 10 0 6 -3 9 -7 9
-29 -5 -33 3 -9 22 14 11 26 27 26 35 0 12 4 12 20 2 11 -7 22 -18 25 -26z
m-170 -198 c-28 -21 -93 -25 -125 -9 -17 9 -30 17 -30 20 0 2 38 3 85 2 67 -1
82 -4 70 -13z"/>
<path d="M348 2413 c17 -2 47 -2 65 0 17 2 3 4 -33 4 -36 0 -50 -2 -32 -4z"/>
<path d="M4110 2402 c0 -17 -5 -18 -77 -6 -43 7 -94 13 -113 13 -31 1 -33 -1
-19 -14 23 -23 192 -43 213 -26 18 15 22 51 6 51 -5 0 -10 -8 -10 -18z"/>
<path d="M460 2400 c0 -5 5 -10 11 -10 5 0 7 5 4 10 -3 6 -8 10 -11 10 -2 0
-4 -4 -4 -10z"/>
<path d="M1782 2315 c0 -44 3 -89 7 -100 4 -11 6 18 4 65 -6 116 -11 131 -11
35z"/>
<path d="M472 2308 l-2 -77 -57 -4 -58 -3 58 -2 c68 -2 69 -1 64 94 l-3 69 -2
-77z"/>
<path d="M2379 2323 c-13 -16 -12 -17 4 -4 9 7 17 15 17 17 0 8 -8 3 -21 -13z"/>
<path d="M2038 2313 c7 -3 16 -2 19 1 4 3 -2 6 -13 5 -11 0 -14 -3 -6 -6z"/>
<path d="M2138 2313 c7 -3 16 -2 19 1 4 3 -2 6 -13 5 -11 0 -14 -3 -6 -6z"/>
<path d="M1965 2290 c-3 -6 1 -7 9 -4 18 7 21 14 7 14 -6 0 -13 -4 -16 -10z"/>
<path d="M491 2254 c0 -11 3 -14 6 -6 3 7 2 16 -1 19 -3 4 -6 -2 -5 -13z"/>
<path d="M309 2203 c-13 -17 -13 -17 6 -3 11 8 22 16 24 17 2 2 0 3 -6 3 -6 0
-17 -8 -24 -17z"/>
<path d="M2541 2206 c-8 -10 -9 -16 -1 -21 6 -4 9 -1 8 7 -2 8 8 13 30 14 45
1 54 14 10 14 -20 0 -41 -6 -47 -14z"/>
<path d="M2623 2203 c-7 -2 -13 -13 -13 -23 0 -19 -25 -34 -41 -24 -5 3 -9 -4
-9 -15 0 -12 -7 -21 -16 -21 -8 0 -13 -4 -10 -8 2 -4 1 -14 -4 -22 -7 -11 -11
-11 -24 -1 -9 8 -16 11 -16 8 0 -15 77 -57 103 -57 39 0 87 49 87 89 0 33 -38
82 -57 74z m11 -140 c-23 -16 -65 -17 -87 0 -14 10 -7 12 44 13 53 0 59 -1 43
-13z"/>
<path d="M1790 2100 c0 -51 2 -91 5 -89 7 8 9 168 2 175 -4 4 -7 -35 -7 -86z"/>
<path d="M292 2150 c0 -14 2 -19 5 -12 2 6 2 18 0 25 -3 6 -5 1 -5 -13z"/>
<path d="M87 2103 l5 -62 -48 -4 -49 -3 53 -2 52 -2 -1 43 c-1 23 -5 53 -9 67
-6 16 -7 2 -3 -37z"/>
<path d="M2420 2146 c0 -2 14 -14 30 -26 17 -12 30 -19 30 -16 0 2 -13 14 -30
26 -16 12 -30 19 -30 16z"/>
<path d="M2501 2134 c0 -11 3 -14 6 -6 3 7 2 16 -1 19 -3 4 -6 -2 -5 -13z"/>
<path d="M2078 2113 c12 -2 30 -2 40 0 9 3 -1 5 -23 4 -22 0 -30 -2 -17 -4z"/>
<path d="M2030 2090 c-6 -11 -8 -20 -6 -20 3 0 10 9 16 20 6 11 8 20 6 20 -3
0 -10 -9 -16 -20z"/>
<path d="M2170 2086 c0 -2 8 -10 18 -17 15 -13 16 -12 3 4 -13 16 -21 21 -21
13z"/>
<path d="M400 2076 c0 -2 11 -6 25 -8 13 -3 22 -1 19 3 -5 9 -44 13 -44 5z"/>
<path d="M2085 2070 c-3 -5 -1 -10 4 -10 6 0 11 5 11 10 0 6 -2 10 -4 10 -3 0
-8 -4 -11 -10z"/>
<path d="M48 2063 c6 -2 18 -2 25 0 6 3 1 5 -13 5 -14 0 -19 -2 -12 -5z"/>
<path d="M4070 2067 c0 -22 47 -117 78 -155 75 -94 177 -127 287 -91 73 25
152 88 184 149 28 54 27 63 -3 20 -55 -81 -183 -138 -279 -126 -96 13 -189 75
-237 160 -17 28 -30 47 -30 43z"/>
<path d="M2011 2032 c-1 -25 7 -41 28 -63 58 -57 140 -24 138 57 0 21 -2 31
-4 22 -4 -14 -15 -18 -48 -18 -35 0 -43 -3 -39 -15 4 -10 0 -15 -15 -15 -18 0
-20 3 -12 18 7 14 6 18 -9 18 -10 0 -16 -6 -13 -13 3 -7 0 -13 -5 -13 -6 0
-13 12 -15 28 -4 25 -4 24 -6 -6z m159 -27 c0 -8 -4 -15 -10 -15 -5 0 -7 7 -4
15 4 8 8 15 10 15 2 0 4 -7 4 -15z m-117 -23 c-2 -6 4 -9 12 -6 8 4 15 1 15
-6 0 -12 22 -11 65 5 20 7 20 6 1 -9 -25 -20 -65 -20 -94 0 -23 16 -30 39 -9
31 6 -2 11 -9 10 -15z m77 8 c0 -5 -5 -10 -11 -10 -5 0 -7 5 -4 10 3 6 8 10
11 10 2 0 4 -4 4 -10z"/>
<path d="M2210 2056 c0 -3 20 -19 45 -36 25 -17 45 -29 45 -26 0 3 -20 19 -45
36 -25 17 -45 29 -45 26z"/>
<path d="M368 1843 c17 -2 47 -2 65 0 17 2 3 4 -33 4 -36 0 -50 -2 -32 -4z"/>
<path d="M67 1833 l32 -4 4 -87 3 -87 2 93 2 92 -37 -2 c-37 -1 -37 -1 -6 -5z"/>
<path d="M313 1730 c0 -47 2 -66 4 -42 2 23 2 61 0 85 -2 23 -4 4 -4 -43z"/>
<path d="M81 1784 c0 -11 3 -14 6 -6 3 7 2 16 -1 19 -3 4 -6 -2 -5 -13z"/>
<path d="M362 1740 c0 -14 2 -19 5 -12 2 6 2 18 0 25 -3 6 -5 1 -5 -13z"/>
<path d="M3028 1751 c9 -5 -14 -11 -60 -16 -40 -4 -67 -10 -60 -12 7 -3 49 0
93 7 44 6 90 8 102 5 16 -4 18 -3 7 3 -8 5 -33 12 -55 15 -23 4 -34 3 -27 -2z"/>
<path d="M2853 1713 c9 -2 23 -2 30 0 6 3 -1 5 -18 5 -16 0 -22 -2 -12 -5z"/>
<path d="M2808 1703 c7 -3 16 -2 19 1 4 3 -2 6 -13 5 -11 0 -14 -3 -6 -6z"/>
<path d="M3713 1683 c26 -2 67 -2 90 0 23 2 2 3 -48 3 -49 0 -68 -1 -42 -3z"/>
<path d="M6977 1663 c-13 -12 -7 -51 8 -57 12 -4 15 3 15 29 0 33 -8 43 -23
28z"/>
<path d="M5920 1380 c0 -5 5 -10 10 -10 6 0 10 5 10 10 0 6 -4 10 -10 10 -5 0
-10 -4 -10 -10z"/>
<path d="M5845 1306 c-16 -13 -33 -22 -36 -20 -3 1 -6 -3 -6 -11 0 -8 15 -2
39 18 34 27 44 37 36 37 -2 0 -16 -11 -33 -24z"/>
<path d="M5300 1226 c0 -2 8 -10 18 -17 15 -13 16 -12 3 4 -13 16 -21 21 -21
13z"/>
<path d="M5660 1130 c0 -5 5 -10 10 -10 6 0 10 5 10 10 0 6 -4 10 -10 10 -5 0
-10 -4 -10 -10z"/>
<path d="M335 1034 c3 -16 12 -62 19 -102 8 -40 16 -76 19 -79 6 -5 177 127
177 137 0 4 -118 44 -202 67 -15 4 -17 0 -13 -23z"/>
<path d="M6825 793 c-27 -14 -51 -26 -52 -27 -1 -1 2 -21 8 -44 12 -56 -3
-113 -46 -173 l-32 -45 26 -51 c25 -50 27 -51 51 -38 64 33 61 36 129 -104 34
-72 69 -135 77 -142 12 -10 14 25 14 250 0 256 0 261 -19 251 -11 -5 -22 -10
-24 -10 -2 0 -21 36 -41 80 -21 44 -39 80 -39 80 -1 -1 -24 -13 -52 -27z"/>
<path d="M4432 740 c0 -14 2 -19 5 -12 2 6 2 18 0 25 -3 6 -5 1 -5 -13z"/>
<path d="M4013 229 c-93 -12 -170 -73 -208 -162 -30 -71 -44 -67 250 -67 293
1 279 -3 250 67 -49 118 -160 179 -292 162z m75 -28 c12 -11 22 -23 22 -29 0
-5 10 -14 23 -20 21 -10 21 -11 1 -11 -12 -1 -31 -9 -43 -20 -19 -17 -20 -20
-5 -32 14 -12 14 -14 -4 -20 -23 -9 -62 -1 -62 12 0 5 5 9 12 9 6 0 1 11 -12
25 -13 14 -30 25 -37 25 -11 0 -9 8 7 30 12 17 30 30 41 30 11 0 17 5 14 10
-10 17 19 10 43 -9z m85 -119 c15 -16 15 -19 -4 -30 -28 -18 -53 1 -38 29 12
24 21 24 42 1z m32 -52 c0 -8 -10 -16 -22 -18 -22 -3 -32 16 -16 32 12 11 38
2 38 -14z"/>
<path d="M1763 166 c-80 -39 -88 -47 -73 -76 14 -27 33 -25 110 13 49 24 66
38 68 56 3 20 -11 40 -28 41 -3 0 -38 -15 -77 -34z"/>
<path d="M3462 120 c0 -14 2 -19 5 -12 2 6 2 18 0 25 -3 6 -5 1 -5 -13z"/>
<path d="M2053 3 c9 -2 25 -2 35 0 9 3 1 5 -18 5 -19 0 -27 -2 -17 -5z"/>
</g>
</svg>
